<svg width="40" height="40" viewBox="0 0 40 40" fill="none" xmlns="http://www.w3.org/2000/svg">
<path d="M9.99996 36.6667C9.0833 36.6667 8.2983 36.34 7.64496 35.6867C6.99163 35.0333 6.66552 34.2489 6.66663 33.3333V6.66667C6.66663 5.75001 6.9933 4.96501 7.64663 4.31167C8.29996 3.65834 9.08441 3.33223 9.99996 3.33334H30C30.9166 3.33334 31.7016 3.66001 32.355 4.31334C33.0083 4.96667 33.3344 5.75112 33.3333 6.66667V33.3333C33.3333 34.25 33.0066 35.035 32.3533 35.6883C31.7 36.3417 30.9155 36.6678 30 36.6667H9.99996ZM18.3333 18.3333L22.5 15.8333L26.6666 18.3333V6.66667H18.3333V18.3333Z" fill="white"/>
</svg>
