<svg width="40" height="40" viewBox="0 0 40 40" fill="none" xmlns="http://www.w3.org/2000/svg">
<path d="M35.0085 5C35.4505 5 35.8744 5.17559 36.187 5.48816C36.4995 5.80072 36.6751 6.22464 36.6751 6.66667V15.8333C35.5701 15.8333 34.5102 16.2723 33.7288 17.0537C32.9474 17.8351 32.5085 18.8949 32.5085 20C32.5085 21.1051 32.9474 22.1649 33.7288 22.9463C34.5102 23.7277 35.5701 24.1667 36.6751 24.1667V33.3333C36.6751 33.7754 36.4995 34.1993 36.187 34.5118C35.8744 34.8244 35.4505 35 35.0085 35H5.00846C4.56644 35 4.14251 34.8244 3.82995 34.5118C3.51739 34.1993 3.3418 33.7754 3.3418 33.3333V24.1667C4.44687 24.1667 5.50667 23.7277 6.28808 22.9463C7.06948 22.1649 7.50846 21.1051 7.50846 20C7.50846 18.8949 7.06948 17.8351 6.28808 17.0537C5.50667 16.2723 4.44687 15.8333 3.3418 15.8333V6.66667C3.3418 6.22464 3.51739 5.80072 3.82995 5.48816C4.14251 5.17559 4.56644 5 5.00846 5H35.0085Z" fill="white"/>
</svg>
