<svg width="40" height="40" viewBox="0 0 40 40" fill="none" xmlns="http://www.w3.org/2000/svg">
<path d="M26.2258 21.25H13.6476V18.75H26.2258V7.1875C26.2258 6.93886 26.127 6.7004 25.9512 6.52459C25.7754 6.34877 25.5369 6.25 25.2883 6.25H3.41327C3.16463 6.25 2.92617 6.34877 2.75036 6.52459C2.57454 6.7004 2.47577 6.93886 2.47577 7.1875V32.8125C2.47577 33.0611 2.57454 33.2996 2.75036 33.4754C2.92617 33.6512 3.16463 33.75 3.41327 33.75H25.2883C25.5369 33.75 25.7754 33.6512 25.9512 33.4754C26.127 33.2996 26.2258 33.0611 26.2258 32.8125V21.25ZM32.7391 21.25L27.7391 26.25L29.507 28.018L37.5242 20L29.507 11.982L27.7391 13.75L32.7391 18.75H26.2258V21.25H32.7391Z" fill="white"/>
</svg>
