<svg width="128" height="128" viewBox="0 0 128 128" fill="none" xmlns="http://www.w3.org/2000/svg">
<path d="M95.9908 37.3483H32.0976V16.0506H95.9908V37.3483ZM95.9908 66.6327C97.4994 66.6327 98.7649 66.1216 99.7871 65.0993C100.809 64.077 101.319 62.8133 101.315 61.3083C101.315 59.7997 100.804 58.5342 99.7818 57.512C98.7595 56.4897 97.4959 55.9803 95.9908 55.9838C94.4822 55.9838 93.2168 56.495 92.1945 57.5173C91.1722 58.5396 90.6628 59.8032 90.6664 61.3083C90.6664 62.8169 91.1775 64.0823 92.1998 65.1046C93.2221 66.1269 94.4858 66.6363 95.9908 66.6327ZM85.3419 101.242V79.9438H42.7464V101.242H85.3419ZM95.9908 111.89H32.0976V90.5927H10.7998V58.6461C10.7998 54.1203 12.3528 50.3257 15.4587 47.2624C18.5646 44.1991 22.3361 42.6692 26.7731 42.6728H101.315C105.841 42.6728 109.636 44.2044 112.699 47.2677C115.762 50.3311 117.292 54.1238 117.289 58.6461V90.5927H95.9908V111.89Z" fill="white"/>
</svg>
