<svg width="40" height="40" viewBox="0 0 40 40" fill="none" xmlns="http://www.w3.org/2000/svg">
<g clip-path="url(#clip0_116_188)">
<path fill-rule="evenodd" clip-rule="evenodd" d="M0 9.33334C0 8.27247 0.421427 7.25505 1.17157 6.50491C1.92172 5.75476 2.93913 5.33334 4 5.33334H36C37.0609 5.33334 38.0783 5.75476 38.8284 6.50491C39.5786 7.25505 40 8.27247 40 9.33334V30.6667C40 31.7275 39.5786 32.745 38.8284 33.4951C38.0783 34.2452 37.0609 34.6667 36 34.6667H4C2.93913 34.6667 1.92172 34.2452 1.17157 33.4951C0.421427 32.745 0 31.7275 0 30.6667L0 9.33334ZM8 16C8 14.5855 8.5619 13.229 9.5621 12.2288C10.5623 11.2286 11.9188 10.6667 13.3333 10.6667C14.7478 10.6667 16.1044 11.2286 17.1046 12.2288C18.1048 13.229 18.6667 14.5855 18.6667 16C18.6667 17.4145 18.1048 18.771 17.1046 19.7712C16.1044 20.7714 14.7478 21.3333 13.3333 21.3333C11.9188 21.3333 10.5623 20.7714 9.5621 19.7712C8.5619 18.771 8 17.4145 8 16ZM32 16H24V13.3333H32V16ZM32 24H24V21.3333H32V24ZM13.3333 24C11.8838 24 10.4629 24.4036 9.22981 25.1657C7.99675 25.9278 7.00026 27.0182 6.352 28.3147L5.472 30.0693C5.37004 30.2728 5.32186 30.499 5.33205 30.7264C5.34224 30.9537 5.41046 31.1747 5.53022 31.3683C5.64998 31.5618 5.81729 31.7215 6.01622 31.832C6.21515 31.9426 6.43907 32.0005 6.66667 32H20C20.2274 32 20.451 31.9418 20.6495 31.8311C20.8481 31.7203 21.015 31.5606 21.1345 31.3671C21.2539 31.1737 21.3219 30.9529 21.332 30.7257C21.342 30.4986 21.2939 30.2726 21.192 30.0693L20.3147 28.3147C19.6664 27.0182 18.6699 25.9278 17.4369 25.1657C16.2038 24.4036 14.7829 24 13.3333 24Z" fill="white"/>
</g>
<defs>
<clipPath id="clip0_116_188">
<rect width="40" height="40" fill="white"/>
</clipPath>
</defs>
</svg>
