<svg width="107" height="122" viewBox="0 0 107 122" fill="none" xmlns="http://www.w3.org/2000/svg">
<path d="M60.4301 103.304C60.7997 103.489 61.3541 103.489 61.9085 103.489C64.6805 103.489 67.0829 100.902 67.0829 98.1295C67.6373 98.3143 68.0069 98.3143 68.7461 98.3143C72.0725 98.3143 74.2902 95.7271 74.2902 92.7703C74.2902 91.1071 73.7358 89.6287 72.6269 88.5199L59.6908 75.9534C77.247 62.8325 78.7254 60.7997 83.1606 56.734L85.563 54.5164C98.1295 61.3541 107 74.2902 107 86.6719C107 109.587 92.5855 121.045 64.3109 121.045H0V0H78.7254C94.0639 0 100.717 11.4577 100.717 20.8826C100.717 40.6563 74.1054 60.4301 58.9516 71.7029C57.658 72.6269 56.734 73.551 53.7772 75.5838L69.4853 90.9223C70.0397 91.4767 70.4093 92.2159 70.4093 92.7703C70.4093 93.6943 69.6701 94.8031 68.3765 94.8031C67.4525 94.8031 66.3437 94.0639 65.0501 92.9551L53.038 81.867L51.0052 84.0846L62.2781 95.7271C63.0173 96.4663 63.3869 97.2055 63.3869 97.7599C63.3869 98.8687 62.4629 99.6079 61.1693 99.6079C60.43 99.6079 59.506 99.4231 58.7668 98.6839L46.7548 87.9655L44.7219 89.9983L54.7012 99.6079C55.4404 100.347 56.1796 101.641 56.1796 102.565C56.1796 103.489 55.2556 104.043 54.5164 104.043C53.5924 104.043 52.4836 103.674 51.19 102.75C41.2107 95.7271 29.5682 86.1174 22.5458 79.2798C19.5889 76.5078 18.1105 73.1814 18.1105 69.8549C18.1105 66.5285 19.4041 63.0173 22.5458 60.2453L60.6149 26.6114C62.4629 25.133 63.0173 23.1002 63.0173 21.6218C63.0173 20.3282 62.6477 19.2193 61.7237 18.2953C60.4301 17.0017 59.506 16.8169 58.0276 16.6321V15.8929C58.0276 14.7841 57.658 14.0449 57.1036 13.3057C56.3644 12.1969 54.7012 11.6425 53.038 11.6425H52.2988C52.2988 10.5337 51.9292 9.60968 51.19 8.68567C50.4508 7.76167 49.1572 7.20726 47.6788 7.20726C45.6459 7.20726 43.2435 8.13127 40.1019 10.5337C31.601 17.0017 23.4698 24.0242 17.9257 29.5682C15.7081 31.7858 11.0881 37.1451 11.0881 44.7219C11.0881 50.8204 14.5993 55.6252 18.1105 59.1365C15.5233 62.4629 14.2297 65.9741 14.2297 69.6701C14.2297 73.9206 16.0777 78.3558 19.7737 82.0518C26.7962 89.2591 36.7755 97.3903 46.9395 104.413C50.4508 106.815 53.2228 107.739 55.4404 107.739C58.2124 107.739 60.4301 105.891 60.4301 103.304ZM36.0363 27.5354L50.266 16.0777C51.3748 15.1537 52.114 15.1537 52.6684 15.1537C53.5924 15.1537 54.3316 15.8929 54.3316 16.4473C54.3316 17.3713 53.962 17.9257 53.038 18.6649L38.4387 30.4922L40.4715 33.0795L55.0708 21.2522C55.81 20.513 56.5492 20.3282 57.2884 20.3282C58.0276 20.3282 58.9516 21.0674 58.9516 21.9914C58.9516 22.5458 58.9516 22.9154 57.8428 23.8394L41.3955 38.4387C33.4491 45.6459 24.7634 52.4836 20.8826 56.3644C17.1865 52.8532 14.9689 49.1572 14.9689 44.7219C14.9689 38.6235 19.2193 33.8187 20.6978 32.3402C26.2418 26.981 34.9275 19.2193 43.4283 12.9361C44.9067 11.8273 46.0155 11.0881 47.1244 11.0881C47.6788 11.0881 48.418 11.6425 48.418 12.3817C48.418 13.3057 48.2332 14.0449 47.3092 14.7841L34.0035 25.133L36.0363 27.5354Z" fill="white"/>
</svg>
