<svg width="40" height="40" viewBox="0 0 40 40" fill="none" xmlns="http://www.w3.org/2000/svg">
<path d="M3.8735 18.9983C4.07034 19.1465 4.29445 19.2544 4.53301 19.3159C4.77157 19.3774 5.01991 19.3912 5.26384 19.3567C5.50777 19.3222 5.7425 19.2399 5.95462 19.1146C6.16673 18.9893 6.35208 18.8234 6.50006 18.6265C7.19863 17.6947 8.10459 16.9384 9.14616 16.4175C10.1877 15.8966 11.3363 15.6254 12.5008 15.6254C13.6654 15.6254 14.814 15.8966 15.8555 16.4175C16.8971 16.9384 17.8031 17.6947 18.5016 18.6265C18.8002 19.024 19.2445 19.2867 19.7368 19.3568C20.2291 19.4268 20.729 19.2984 21.1266 18.9999C21.2672 18.8932 21.3924 18.7675 21.4985 18.6265C22.1971 17.6947 23.103 16.9384 24.1446 16.4175C25.1862 15.8966 26.3347 15.6254 27.4993 15.6254C28.6638 15.6254 29.8124 15.8966 30.854 16.4175C31.8955 16.9384 32.8015 17.6947 33.5001 18.6265C33.6466 18.8269 33.8314 18.9962 34.0439 19.1247C34.2563 19.2531 34.4922 19.338 34.7378 19.3746C34.9833 19.4111 35.2337 19.3986 35.4743 19.3376C35.715 19.2766 35.9411 19.1684 36.1397 19.0194C36.3382 18.8703 36.5051 18.6833 36.6308 18.4692C36.7565 18.2551 36.8384 18.0181 36.8718 17.7721C36.9052 17.5261 36.8893 17.2759 36.8253 17.0361C36.7612 16.7962 36.6501 16.5715 36.4985 16.3749C35.4554 14.9784 34.1021 13.8433 32.5454 13.0593C33.2266 12.1275 33.6365 11.0253 33.7297 9.87485C33.8228 8.72438 33.5956 7.57059 33.0731 6.54137C32.5506 5.51216 31.7534 4.64773 30.7697 4.04391C29.786 3.44009 28.6543 3.12046 27.5001 3.12046C26.3458 3.12046 25.2141 3.44009 24.2304 4.04391C23.2468 4.64773 22.4495 5.51216 21.927 6.54137C21.4046 7.57059 21.1773 8.72438 21.2704 9.87485C21.3636 11.0253 21.7735 12.1275 22.4547 13.0593C21.565 13.5055 20.7394 14.0694 20.0001 14.7358C19.2608 14.0688 18.4352 13.5044 17.5454 13.0577C18.2266 12.126 18.6365 11.0238 18.7297 9.87328C18.8228 8.72282 18.5956 7.56903 18.0731 6.53981C17.5506 5.5106 16.7534 4.64617 15.7697 4.04235C14.786 3.43852 13.6543 3.1189 12.5001 3.1189C11.3458 3.1189 10.2141 3.43852 9.23045 4.04235C8.24676 4.64617 7.44949 5.5106 6.92702 6.53981C6.40455 7.56903 6.1773 8.72282 6.27045 9.87328C6.3636 11.0238 6.77351 12.126 7.45475 13.0577C5.89797 13.8417 4.54468 14.9768 3.50162 16.3733C3.20292 16.7708 3.0743 17.2706 3.14403 17.7628C3.21377 18.2551 3.47616 18.6995 3.8735 18.9983ZM27.5001 6.87489C27.9945 6.87489 28.4779 7.02152 28.889 7.29622C29.3001 7.57092 29.6205 7.96137 29.8098 8.41819C29.999 8.875 30.0485 9.37767 29.952 9.86262C29.8556 10.3476 29.6175 10.793 29.2678 11.1427C28.9182 11.4923 28.4727 11.7304 27.9878 11.8269C27.5028 11.9233 27.0002 11.8738 26.5433 11.6846C26.0865 11.4954 25.6961 11.1749 25.4214 10.7638C25.1467 10.3527 25.0001 9.86935 25.0001 9.37489C25.0001 8.71185 25.2635 8.07597 25.7323 7.60713C26.2011 7.13829 26.837 6.87489 27.5001 6.87489ZM12.5001 6.87489C12.9945 6.87489 13.4779 7.02152 13.889 7.29622C14.3001 7.57092 14.6205 7.96137 14.8098 8.41819C14.999 8.875 15.0485 9.37767 14.952 9.86262C14.8556 10.3476 14.6175 10.793 14.2678 11.1427C13.9182 11.4923 13.4727 11.7304 12.9878 11.8269C12.5028 11.9233 12.0002 11.8738 11.5434 11.6846C11.0865 11.4954 10.6961 11.1749 10.4214 10.7638C10.1467 10.3527 10.0001 9.86935 10.0001 9.37489C10.0001 8.71185 10.2635 8.07597 10.7323 7.60713C11.2011 7.13829 11.837 6.87489 12.5001 6.87489ZM32.5454 30.5577C33.2266 29.626 33.6365 28.5238 33.7297 27.3733C33.8228 26.2228 33.5956 25.069 33.0731 24.0398C32.5506 23.0106 31.7534 22.1462 30.7697 21.5423C29.786 20.9385 28.6543 20.6189 27.5001 20.6189C26.3458 20.6189 25.2141 20.9385 24.2304 21.5423C23.2468 22.1462 22.4495 23.0106 21.927 24.0398C21.4046 25.069 21.1773 26.2228 21.2704 27.3733C21.3636 28.5238 21.7735 29.626 22.4547 30.5577C21.5653 31.0044 20.7397 31.5683 20.0001 32.2343C19.2604 31.5683 18.4348 31.0044 17.5454 30.5577C18.2266 29.626 18.6365 28.5238 18.7297 27.3733C18.8228 26.2228 18.5956 25.069 18.0731 24.0398C17.5506 23.0106 16.7534 22.1462 15.7697 21.5423C14.786 20.9385 13.6543 20.6189 12.5001 20.6189C11.3458 20.6189 10.2141 20.9385 9.23045 21.5423C8.24676 22.1462 7.44949 23.0106 6.92702 24.0398C6.40455 25.069 6.1773 26.2228 6.27045 27.3733C6.3636 28.5238 6.77351 29.626 7.45475 30.5577C5.89797 31.3417 4.54468 32.4768 3.50162 33.8733C3.20284 34.2709 3.07425 34.771 3.14413 35.2634C3.21402 35.7558 3.47666 36.2003 3.87428 36.4991C4.2719 36.7979 4.77192 36.9265 5.26435 36.8566C5.75678 36.7867 6.20128 36.5241 6.50006 36.1265C7.19863 35.1947 8.10459 34.4384 9.14616 33.9175C10.1877 33.3966 11.3363 33.1254 12.5008 33.1254C13.6654 33.1254 14.814 33.3966 15.8555 33.9175C16.8971 34.4384 17.8031 35.1947 18.5016 36.1265C18.8002 36.524 19.2445 36.7867 19.7368 36.8568C20.2291 36.9268 20.729 36.7984 21.1266 36.4999C21.2672 36.3932 21.3924 36.2675 21.4985 36.1265C22.1971 35.1947 23.103 34.4384 24.1446 33.9175C25.1862 33.3966 26.3347 33.1254 27.4993 33.1254C28.6638 33.1254 29.8124 33.3966 30.854 33.9175C31.8955 34.4384 32.8015 35.1947 33.5001 36.1265C33.6466 36.3269 33.8314 36.4962 34.0439 36.6247C34.2563 36.7531 34.4922 36.838 34.7378 36.8746C34.9833 36.9111 35.2337 36.8986 35.4743 36.8376C35.715 36.7766 35.9411 36.6684 36.1397 36.5194C36.3382 36.3703 36.5051 36.1833 36.6308 35.9692C36.7565 35.7551 36.8384 35.5181 36.8718 35.2721C36.9052 35.0261 36.8893 34.7759 36.8253 34.5361C36.7612 34.2962 36.6501 34.0715 36.4985 33.8749C35.456 32.4774 34.1026 31.3418 32.5454 30.5577ZM12.5001 24.3749C12.9945 24.3749 13.4779 24.5215 13.889 24.7962C14.3001 25.0709 14.6205 25.4614 14.8098 25.9182C14.999 26.375 15.0485 26.8777 14.952 27.3626C14.8556 27.8476 14.6175 28.293 14.2678 28.6427C13.9182 28.9923 13.4727 29.2304 12.9878 29.3269C12.5028 29.4233 12.0002 29.3738 11.5434 29.1846C11.0865 28.9954 10.6961 28.6749 10.4214 28.2638C10.1467 27.8527 10.0001 27.3693 10.0001 26.8749C10.0001 26.2119 10.2635 25.576 10.7323 25.1071C11.2011 24.6383 11.837 24.3749 12.5001 24.3749ZM27.5001 24.3749C27.9945 24.3749 28.4779 24.5215 28.889 24.7962C29.3001 25.0709 29.6205 25.4614 29.8098 25.9182C29.999 26.375 30.0485 26.8777 29.952 27.3626C29.8556 27.8476 29.6175 28.293 29.2678 28.6427C28.9182 28.9923 28.4727 29.2304 27.9878 29.3269C27.5028 29.4233 27.0002 29.3738 26.5433 29.1846C26.0865 28.9954 25.6961 28.6749 25.4214 28.2638C25.1467 27.8527 25.0001 27.3693 25.0001 26.8749C25.0001 26.2119 25.2635 25.576 25.7323 25.1071C26.2011 24.6383 26.837 24.3749 27.5001 24.3749Z" fill="white"/>
</svg>
